<svg width="64" height="64" viewBox="0 0 64 64" fill="none" xmlns="http://www.w3.org/2000/svg">
<g id="CaretCircleDoubleRight">
<path id="Vector" d="M50.3925 13.605C46.7553 9.97137 42.1225 7.49763 37.0797 6.49647C32.0369 5.49531 26.8105 6.01168 22.0611 7.98031C17.3117 9.94893 13.2525 13.2814 10.3967 17.5566C7.54093 21.8317 6.01669 26.8575 6.01669 31.9987C6.01669 37.14 7.54093 42.1658 10.3967 46.4409C13.2525 50.7161 17.3117 54.0486 22.0611 56.0172C26.8105 57.9858 32.0369 58.5022 37.0797 57.501C42.1225 56.4999 46.7553 54.0261 50.3925 50.3925C55.2635 45.5103 57.9991 38.8953 57.9991 31.9987C57.9991 25.1022 55.2635 18.4872 50.3925 13.605ZM31.415 33.415L23.415 41.415C23.2292 41.6008 23.0086 41.7482 22.7658 41.8488C22.523 41.9493 22.2628 42.0011 22 42.0011C21.7372 42.0011 21.477 41.9493 21.2342 41.8488C20.9914 41.7482 20.7708 41.6008 20.585 41.415C20.3992 41.2292 20.2518 41.0086 20.1512 40.7658C20.0506 40.523 19.9989 40.2628 19.9989 40C19.9989 39.7372 20.0506 39.477 20.1512 39.2342C20.2518 38.9914 20.3992 38.7708 20.585 38.585L27.17 32L20.58 25.41C20.3942 25.2242 20.2468 25.0036 20.1462 24.7608C20.0456 24.518 19.9939 24.2578 19.9939 23.995C19.9939 23.7322 20.0456 23.472 20.1462 23.2292C20.2468 22.9864 20.3942 22.7658 20.58 22.58C20.7658 22.3942 20.9864 22.2468 21.2292 22.1462C21.472 22.0456 21.7322 21.9939 21.995 21.9939C22.2578 21.9939 22.518 22.0456 22.7608 22.1462C23.0036 22.2468 23.2242 22.3942 23.41 22.58L31.41 30.58C31.597 30.7655 31.7456 30.9861 31.8471 31.2292C31.9486 31.4723 32.0011 31.733 32.0016 31.9965C32.002 32.2599 31.9505 32.5208 31.8498 32.7642C31.7491 33.0077 31.6014 33.2288 31.415 33.415ZM45.415 33.415L37.415 41.415C37.0397 41.7903 36.5307 42.0011 36 42.0011C35.4693 42.0011 34.9603 41.7903 34.585 41.415C34.2097 41.0397 33.9989 40.5307 33.9989 40C33.9989 39.4693 34.2097 38.9603 34.585 38.585L41.1775 32L34.5875 25.41C34.4017 25.2242 34.2543 25.0036 34.1537 24.7608C34.0531 24.518 34.0014 24.2578 34.0014 23.995C34.0014 23.7322 34.0531 23.472 34.1537 23.2292C34.2543 22.9864 34.4017 22.7658 34.5875 22.58C34.7733 22.3942 34.9939 22.2468 35.2367 22.1462C35.4795 22.0456 35.7397 21.9939 36.0025 21.9939C36.2653 21.9939 36.5255 22.0456 36.7683 22.1462C37.0111 22.2468 37.2317 22.3942 37.4175 22.58L45.4175 30.58C45.6044 30.7657 45.7527 30.9864 45.854 31.2296C45.9553 31.4728 46.0076 31.7335 46.0078 31.997C46.0081 32.2604 45.9562 32.5213 45.8554 32.7646C45.7545 33.008 45.6065 33.229 45.42 33.415H45.415Z" fill="#343330"/>
</g>
</svg>
