<svg width="21" height="21" viewBox="0 0 21 21" fill="none" xmlns="http://www.w3.org/2000/svg">
<path d="M9.05501 2.67578H4.05501C3.834 2.67578 3.62204 2.76358 3.46576 2.91986C3.30948 3.07614 3.22168 3.2881 3.22168 3.50911V8.50911C3.22168 8.73013 3.30948 8.94209 3.46576 9.09837C3.62204 9.25465 3.834 9.34245 4.05501 9.34245H9.05501C9.27603 9.34245 9.48799 9.25465 9.64427 9.09837C9.80055 8.94209 9.88835 8.73013 9.88835 8.50911V3.50911C9.88835 3.2881 9.80055 3.07614 9.64427 2.91986C9.48799 2.76358 9.27603 2.67578 9.05501 2.67578ZM8.22168 7.67578H4.88835V4.34245H8.22168V7.67578ZM17.3883 2.67578H12.3883C12.1673 2.67578 11.9554 2.76358 11.7991 2.91986C11.6428 3.07614 11.555 3.2881 11.555 3.50911V8.50911C11.555 8.73013 11.6428 8.94209 11.7991 9.09837C11.9554 9.25465 12.1673 9.34245 12.3883 9.34245H17.3883C17.6094 9.34245 17.8213 9.25465 17.9776 9.09837C18.1339 8.94209 18.2217 8.73013 18.2217 8.50911V3.50911C18.2217 3.2881 18.1339 3.07614 17.9776 2.91986C17.8213 2.76358 17.6094 2.67578 17.3883 2.67578ZM16.555 7.67578H13.2217V4.34245H16.555V7.67578ZM9.05501 11.0091H4.05501C3.834 11.0091 3.62204 11.0969 3.46576 11.2532C3.30948 11.4095 3.22168 11.6214 3.22168 11.8424V16.8424C3.22168 17.0635 3.30948 17.2754 3.46576 17.4317C3.62204 17.588 3.834 17.6758 4.05501 17.6758H9.05501C9.27603 17.6758 9.48799 17.588 9.64427 17.4317C9.80055 17.2754 9.88835 17.0635 9.88835 16.8424V11.8424C9.88835 11.6214 9.80055 11.4095 9.64427 11.2532C9.48799 11.0969 9.27603 11.0091 9.05501 11.0091ZM8.22168 16.0091H4.88835V12.6758H8.22168V16.0091ZM14.8883 11.0091C13.05 11.0091 11.555 12.5041 11.555 14.3424C11.555 16.1808 13.05 17.6758 14.8883 17.6758C16.7267 17.6758 18.2217 16.1808 18.2217 14.3424C18.2217 12.5041 16.7267 11.0091 14.8883 11.0091ZM14.8883 16.0091C13.9692 16.0091 13.2217 15.2616 13.2217 14.3424C13.2217 13.4233 13.9692 12.6758 14.8883 12.6758C15.8075 12.6758 16.555 13.4233 16.555 14.3424C16.555 15.2616 15.8075 16.0091 14.8883 16.0091Z" fill="#323232"/>
</svg>
