<svg width="21" height="21" viewBox="0 0 21 21" fill="none" xmlns="http://www.w3.org/2000/svg">
<path d="M4.38086 12.8529C3.60429 12.8529 3.21601 12.8529 2.90972 12.726C2.50134 12.5568 2.17688 12.2324 2.00773 11.824C1.88086 11.5177 1.88086 11.1294 1.88086 10.3529V4.6862C1.88086 3.75278 1.88086 3.28607 2.06252 2.92955C2.2223 2.61594 2.47727 2.36098 2.79088 2.20119C3.14739 2.01953 3.61411 2.01953 4.54753 2.01953H10.2142C10.9908 2.01953 11.379 2.01953 11.6853 2.1464C12.0937 2.31556 12.4182 2.64001 12.5873 3.04839C12.7142 3.35468 12.7142 3.74296 12.7142 4.51953M10.3809 18.6862H15.8809C16.8143 18.6862 17.281 18.6862 17.6375 18.5045C17.9511 18.3448 18.2061 18.0898 18.3659 17.7762C18.5475 17.4197 18.5475 16.953 18.5475 16.0195V10.5195C18.5475 9.58611 18.5475 9.1194 18.3659 8.76288C18.2061 8.44928 17.9511 8.19431 17.6375 8.03452C17.281 7.85286 16.8143 7.85286 15.8809 7.85286H10.3809C9.44744 7.85286 8.98073 7.85286 8.62421 8.03452C8.31061 8.19431 8.05564 8.44928 7.89585 8.76288C7.71419 9.1194 7.71419 9.58611 7.71419 10.5195V16.0195C7.71419 16.953 7.71419 17.4197 7.89585 17.7762C8.05564 18.0898 8.31061 18.3448 8.62421 18.5045C8.98073 18.6862 9.44744 18.6862 10.3809 18.6862Z" stroke="#667085" stroke-width="1.66667" stroke-linecap="round" stroke-linejoin="round"/>
</svg>
