<svg width="25" height="25" viewBox="0 0 25 25" fill="none" xmlns="http://www.w3.org/2000/svg">
<g clip-path="url(#clip0_654_1824)">
<path d="M11.0115 4.03501L2.54146 18.175C2.36682 18.4774 2.27442 18.8203 2.27345 19.1695C2.27247 19.5187 2.36295 19.8621 2.53588 20.1655C2.70882 20.4689 2.95818 20.7218 3.25916 20.8989C3.56015 21.076 3.90226 21.1712 4.25146 21.175H21.1915C21.5407 21.1712 21.8828 21.076 22.1837 20.8989C22.4847 20.7218 22.7341 20.4689 22.907 20.1655C23.08 19.8621 23.1704 19.5187 23.1695 19.1695C23.1685 18.8203 23.0761 18.4774 22.9015 18.175L14.4315 4.03501C14.2532 3.74112 14.0022 3.49813 13.7027 3.32949C13.4031 3.16086 13.0652 3.07227 12.7215 3.07227C12.3777 3.07227 12.0398 3.16086 11.7403 3.32949C11.4407 3.49813 11.1897 3.74112 11.0115 4.03501V4.03501Z" stroke="#25282B" stroke-width="1.7" stroke-linecap="round" stroke-linejoin="round"/>
<path d="M12.7217 9.17578V13.1758" stroke="#25282B" stroke-width="2" stroke-linecap="round" stroke-linejoin="round"/>
<path d="M12.7217 17.1758H12.7317" stroke="#25282B" stroke-width="2" stroke-linecap="round" stroke-linejoin="round"/>
</g>
<defs>
<clipPath id="clip0_654_1824">
<rect width="24" height="24" fill="white" transform="translate(0.72168 0.175781)"/>
</clipPath>
</defs>
</svg>
