<svg width="25" height="25" viewBox="0 0 25 25" fill="none" xmlns="http://www.w3.org/2000/svg">
<path d="M3.0293 6.33398H5.0293H21.0293" stroke="#34353A" stroke-width="2" stroke-linecap="round" stroke-linejoin="round"/>
<path d="M8.0293 6.33398V4.33398C8.0293 3.80355 8.24001 3.29484 8.61508 2.91977C8.99016 2.5447 9.49886 2.33398 10.0293 2.33398H14.0293C14.5597 2.33398 15.0684 2.5447 15.4435 2.91977C15.8186 3.29484 16.0293 3.80355 16.0293 4.33398V6.33398M19.0293 6.33398V20.334C19.0293 20.8644 18.8186 21.3731 18.4435 21.7482C18.0684 22.1233 17.5597 22.334 17.0293 22.334H7.0293C6.49886 22.334 5.99016 22.1233 5.61508 21.7482C5.24001 21.3731 5.0293 20.8644 5.0293 20.334V6.33398H19.0293Z" stroke="#34353A" stroke-width="2" stroke-linecap="round" stroke-linejoin="round"/>
<path d="M10.0293 11.334V17.334" stroke="#34353A" stroke-width="2" stroke-linecap="round" stroke-linejoin="round"/>
<path d="M14.0293 11.334V17.334" stroke="#34353A" stroke-width="2" stroke-linecap="round" stroke-linejoin="round"/>
</svg>
