<svg width="25" height="25" viewBox="0 0 25 25" fill="none" xmlns="http://www.w3.org/2000/svg">
<path fill-rule="evenodd" clip-rule="evenodd" d="M22.4754 3.67502H14.8779V1.88477L2.38965 3.81227V20.7075L14.8779 22.8585V20.205H22.4754C22.7055 20.2167 22.9308 20.1367 23.1022 19.9827C23.2735 19.8287 23.3769 19.6131 23.3896 19.383V4.49627C23.3767 4.26636 23.2732 4.05094 23.1019 3.89706C22.9306 3.74318 22.7054 3.66335 22.4754 3.67502ZM22.5954 19.5195H14.8524L14.8396 18.1028H16.7049V16.4528H14.8254L14.8164 15.4778H16.7049V13.8278H14.8021L14.7931 12.8528H16.7049V11.2028H14.7871V10.2278H16.7049V8.57777H14.7871V7.60277H16.7049V5.95276H14.7871V4.45277H22.5954V19.5195Z" fill="#20744A"/>
<path d="M20.9971 5.95117H17.7549V7.60117H20.9971V5.95117Z" fill="#20744A"/>
<path d="M20.9971 8.57617H17.7549V10.2262H20.9971V8.57617Z" fill="#20744A"/>
<path d="M20.9971 11.2012H17.7549V12.8512H20.9971V11.2012Z" fill="#20744A"/>
<path d="M20.9971 13.8281H17.7549V15.4781H20.9971V13.8281Z" fill="#20744A"/>
<path d="M20.9971 16.4531H17.7549V18.1031H20.9971V16.4531Z" fill="#20744A"/>
<path fill-rule="evenodd" clip-rule="evenodd" d="M5.64972 8.37542L7.25922 8.28317L8.27097 11.0649L9.46647 8.16842L11.076 8.07617L9.12147 12.0257L11.076 15.9849L9.37422 15.8702L8.22522 12.8522L7.07547 15.7554L5.51172 15.6174L7.32822 12.1202L5.64972 8.37542Z" fill="white"/>
</svg>
