<svg width="29" height="29" viewBox="0 0 29 29" fill="none" xmlns="http://www.w3.org/2000/svg">
<path d="M14.4228 4.84766C19.2242 4.99551 23.0706 8.93398 23.0706 13.7711C23.0706 18.7018 19.0736 22.6992 14.1425 22.6992C9.79053 22.6992 6.16586 19.5855 5.375 15.4645C5.31571 15.1549 5.27413 14.8615 5.24756 14.5416" stroke="#65656C" stroke-width="1.5" stroke-miterlimit="10" stroke-linecap="round" stroke-linejoin="round"/>
<path d="M5.55359 12.2299C5.96858 12.1938 6.27572 11.8281 6.2396 11.4131C6.20348 10.9981 5.83779 10.691 5.42279 10.7271C5.0078 10.7632 4.70067 11.1289 4.73678 11.5439C4.7729 11.9589 5.13859 12.266 5.55359 12.2299Z" fill="#65656C"/>
<path d="M6.77868 9.46672C7.19368 9.4306 7.50081 9.06491 7.4647 8.64992C7.42858 8.23492 7.06288 7.92778 6.64789 7.9639C6.2329 8.00002 5.92576 8.36572 5.96188 8.78071C5.998 9.1957 6.36369 9.50284 6.77868 9.46672Z" fill="#65656C"/>
<path d="M8.8739 7.28264C9.28889 7.24652 9.59603 6.88082 9.55991 6.46583C9.52379 6.05084 9.1581 5.7437 8.74311 5.77982C8.32812 5.81594 8.02098 6.18163 8.05709 6.59662C8.09321 7.01161 8.45891 7.31875 8.8739 7.28264Z" fill="#65656C"/>
<path d="M11.58 5.91057C11.9949 5.87445 12.3021 5.50875 12.266 5.09376C12.2298 4.67877 11.8642 4.37163 11.4492 4.40775C11.0342 4.44387 10.727 4.80956 10.7631 5.22455C10.7993 5.63954 11.165 5.94668 11.58 5.91057Z" fill="#65656C"/>
</svg>
