<svg width="123" height="26" viewBox="0 0 123 26" fill="none" xmlns="http://www.w3.org/2000/svg">
<path d="M6.12563 20.1081V4.89623H0.499023V1.68799H15.5259V4.89623H10.0575V20.1081H6.12563Z" fill="#1640DB"/>
<path d="M14.8242 20.1304V10.5712C14.8242 9.32009 15.1214 8.39254 15.7168 7.78854C16.3117 7.18509 17.2873 6.88281 18.6431 6.88281H24.7668V10.0911H19.9537C19.5018 10.0911 19.1854 10.1893 19.0046 10.3857C18.8239 10.5821 18.7335 10.8915 18.7335 11.3132V20.1304H14.8242Z" fill="#1640DB"/>
<path d="M26.2363 14.7397C26.2363 13.8231 26.5109 13.1138 27.0611 12.6118C27.6108 12.1098 28.4282 11.8589 29.5129 11.8589H35.7722V10.8767C35.7722 10.4839 35.6852 10.1964 35.5123 10.0147C35.3389 9.83297 35.0564 9.74185 34.6649 9.74185H26.8464V6.88281H35.6592C36.4275 6.88281 37.0676 6.96684 37.5799 7.1338C38.0918 7.3013 38.5025 7.55611 38.8115 7.89766C39.1199 8.23977 39.3385 8.66535 39.4668 9.17441C39.5944 9.68402 39.6588 10.2733 39.6588 10.9422V20.1086H29.5129C28.4282 20.1086 27.6108 19.8576 27.0611 19.3557C26.5109 18.8537 26.2363 18.1444 26.2363 17.2277V14.7397ZM30.1461 15.831C30.1461 16.1223 30.1535 16.3586 30.1687 16.5403C30.1834 16.7225 30.2286 16.8644 30.3043 16.9659C30.3795 17.0679 30.4924 17.1404 30.6433 17.1836C30.7935 17.2272 31.0122 17.249 31.2986 17.249H35.7728V14.7174H31.2986C30.8161 14.7174 30.5037 14.8123 30.3608 15.0011C30.2173 15.191 30.1461 15.4676 30.1461 15.831Z" fill="#1640DB"/>
<path d="M51.365 20.1086V12.0116C51.365 11.3427 51.2062 10.8549 50.8904 10.5494C50.5735 10.2438 50.0543 10.0911 49.3312 10.0911H45.67V20.1086H41.7607V6.88281H50.7763C52.3276 6.88281 53.4619 7.26147 54.1777 8.0177C54.8929 8.77447 55.2499 9.88044 55.2499 11.3351V20.1086H51.365Z" fill="#1640DB"/>
<path d="M57.5556 16.9003H65.5548C66.3231 16.9003 66.8807 16.7295 67.2276 16.3874C67.5733 16.0458 67.7473 15.569 67.7473 14.9584V14.3473C67.7473 13.7362 67.5473 13.2637 67.1479 12.9287C66.7485 12.5943 66.2022 12.4197 65.5102 12.4049H61.6456C60.0186 12.4049 58.8357 12.0268 58.0985 11.27C57.3595 10.5138 56.9912 9.40784 56.9912 7.95267V6.14122C56.9912 4.68605 57.3595 3.58063 58.0985 2.82385C58.8362 2.06762 60.0186 1.68896 61.6456 1.68896H70.8883V4.91903H63.115C62.3467 4.91903 61.7891 5.09035 61.4428 5.43191C61.0959 5.77347 60.9231 6.25034 60.9231 6.86143V7.23245C60.9231 7.8872 61.0959 8.37498 61.4428 8.69471C61.7891 9.01445 62.3467 9.17486 63.115 9.17486H67.0242C68.6359 9.17486 69.8143 9.57534 70.5606 10.3752C71.3063 11.1756 71.6791 12.2958 71.6791 13.7362V15.6568C71.6791 17.112 71.3097 18.2174 70.5719 18.9742C69.833 19.7309 68.6512 20.1091 67.0242 20.1091H57.5561L57.5556 16.9003Z" fill="#1640DB"/>
<path d="M73.7119 0.662598H77.8918V4.65653H73.7119V0.662598ZM77.7793 6.88265V20.1085H73.8249V6.88265H77.7793Z" fill="#1640DB"/>
<path d="M80.1064 11.7934C80.1064 11.0077 80.1821 10.3093 80.3324 9.69821C80.4827 9.08711 80.7352 8.57423 81.0894 8.15956C81.4431 7.74489 81.9029 7.42843 82.4678 7.21018C83.0327 6.99194 83.7366 6.88281 84.5801 6.88281H93.5962V22.0292C93.5962 23.3529 93.2764 24.3421 92.6364 24.9968C91.9958 25.6516 90.9529 25.9789 89.5067 25.9789H81.2363V22.8804H88.1961C88.7384 22.8804 89.126 22.7532 89.3598 22.4984C89.5937 22.2436 89.7101 21.8693 89.7101 21.3745V20.1086H84.5806C83.0293 20.1086 81.8956 19.7305 81.1798 18.9737C80.464 18.217 80.1064 17.1115 80.1064 15.6564V11.7934ZM89.7101 16.9222V10.0911H86.0268C85.3037 10.0911 84.7874 10.2438 84.4789 10.5494C84.1699 10.8549 84.0157 11.3427 84.0157 12.0116V14.9798C84.0157 15.6776 84.1699 16.1763 84.4789 16.4743C84.7874 16.7727 85.3037 16.9217 86.0268 16.9217H89.7101V16.9222Z" fill="#1640DB"/>
<path d="M99.7901 1.0332V6.88224H104.897C106.448 6.88224 107.582 7.2609 108.298 8.01713C109.014 8.7739 109.371 9.87987 109.371 11.3345V20.108H105.485V12.0111C105.485 11.3421 105.326 10.8543 105.01 10.5488C104.693 10.2433 104.174 10.0905 103.451 10.0905H99.7901V20.108H95.8809V1.0332H99.7901Z" fill="#1640DB"/>
<path d="M110.84 7.10102H113.913V2.40869H117.8V7.10102H122.499V10.2874H117.8V15.6994C117.8 16.1217 117.89 16.4306 118.07 16.627C118.251 16.8234 118.567 16.9216 119.02 16.9216H122.499V20.108H118.048C117.235 20.108 116.56 20.0207 116.025 19.8467C115.491 19.6721 115.069 19.4058 114.76 19.0501C114.451 18.6932 114.233 18.2491 114.105 17.7188C113.977 17.1884 113.913 16.5588 113.913 15.8309V10.2874H110.84V7.10102Z" fill="#1640DB"/>
</svg>
