<svg width="21" height="21" viewBox="0 0 21 21" fill="none" xmlns="http://www.w3.org/2000/svg">
<g clip-path="url(#clip0_606_1157)">
<path d="M10.4824 0.645996C13.6277 0.645996 16.5398 2.04066 18.4711 4.39026C18.7027 4.67201 18.6566 5.08378 18.3681 5.30996C18.0796 5.53614 17.658 5.49109 17.4264 5.20934C15.7467 3.16588 13.2171 1.95441 10.4824 1.95441C5.56733 1.95441 1.58288 5.84576 1.58288 10.646C1.58288 15.4462 5.56733 19.3376 10.4824 19.3376C13.2576 19.3376 15.8206 18.0897 17.4978 15.9946C17.7257 15.7099 18.1467 15.6596 18.4381 15.8821C18.7296 16.1047 18.7811 16.5158 18.5533 16.8005C16.6248 19.2095 13.6743 20.646 10.4824 20.646C4.82743 20.646 0.243164 16.1688 0.243164 10.646C0.243164 5.12315 4.82743 0.645996 10.4824 0.645996ZM17.341 7.80599L20.0477 10.5126C20.3093 10.7742 20.3142 11.1934 20.0587 11.4489L17.4153 14.0923C17.1599 14.3477 16.7407 14.3428 16.4791 14.0812C16.2175 13.8196 16.2125 13.4004 16.468 13.1449L18.0147 11.5975L7.70556 11.5978C7.33561 11.5978 7.0357 11.3049 7.0357 10.9436C7.0357 10.5823 7.33561 10.2894 7.70556 10.2894L17.9737 10.2885L16.4158 8.73118C16.1542 8.46958 16.1493 8.05041 16.4048 7.79492C16.6603 7.53944 17.0794 7.54439 17.341 7.80599Z" fill="#0F0F0F"/>
</g>
<defs>
<clipPath id="clip0_606_1157">
<rect width="20" height="20" fill="white" transform="translate(0.243164 0.645996)"/>
</clipPath>
</defs>
</svg>
