<svg width="36" height="36" viewBox="0 0 36 36" fill="none" xmlns="http://www.w3.org/2000/svg">
<g id="MagnifyingGlass">
<path id="Vector" d="M32.1497 29.8503L25.7187 23.4167C27.6469 20.904 28.5472 17.7519 28.2368 14.5999C27.9264 11.4479 26.4287 8.5319 24.0475 6.44353C21.6662 4.35517 18.5798 3.25077 15.4142 3.35437C12.2486 3.45797 9.24098 4.76182 7.00138 7.00141C4.76179 9.24101 3.45794 12.2487 3.35434 15.4142C3.25074 18.5798 4.35514 21.6663 6.4435 24.0475C8.53187 26.4288 11.4478 27.9265 14.5999 28.2368C17.7519 28.5472 20.9039 27.647 23.4166 25.7188L29.853 32.1565C30.0042 32.3076 30.1836 32.4275 30.3811 32.5093C30.5786 32.5911 30.7903 32.6332 31.004 32.6332C31.2178 32.6332 31.4295 32.5911 31.627 32.5093C31.8245 32.4275 32.0039 32.3076 32.1551 32.1565C32.3062 32.0053 32.4261 31.8259 32.5079 31.6284C32.5898 31.4309 32.6319 31.2192 32.6319 31.0054C32.6319 30.7917 32.5898 30.58 32.5079 30.3825C32.4261 30.185 32.3062 30.0055 32.1551 29.8544L32.1497 29.8503ZM6.62498 15.8333C6.62498 14.0121 7.16504 12.2318 8.17686 10.7175C9.18869 9.20316 10.6268 8.02291 12.3094 7.32595C13.992 6.62899 15.8435 6.44664 17.6298 6.80194C19.416 7.15725 21.0568 8.03426 22.3446 9.32207C23.6324 10.6099 24.5094 12.2506 24.8647 14.0369C25.22 15.8231 25.0377 17.6746 24.3407 19.3572C23.6437 21.0398 22.4635 22.478 20.9492 23.4898C19.4349 24.5016 17.6545 25.0417 15.8333 25.0417C13.3919 25.0392 11.0512 24.0682 9.32481 22.3418C7.59845 20.6155 6.62749 18.2748 6.62498 15.8333Z" fill="white"/>
</g>
</svg>
