<svg width="25" height="25" viewBox="0 0 25 25" fill="none" xmlns="http://www.w3.org/2000/svg">
<path fill-rule="evenodd" clip-rule="evenodd" d="M13.6249 18.1658L11.5989 16.6328V13.6128C11.5989 13.4538 11.5609 13.2958 11.4869 13.1538L8.95226 8.24805L16.3856 8.24811L13.7449 13.1378C13.6669 13.2838 13.6249 13.4468 13.6249 13.6128V18.1658ZM17.4658 6.24812L7.91892 6.24805L7.36491 5.17578H18.0449L17.4658 6.24812ZM14.0219 20.9728C14.1989 21.1078 14.4119 21.1758 14.6249 21.1758C14.7769 21.1758 14.9299 21.1408 15.0709 21.0708C15.4109 20.9018 15.6249 20.5548 15.6249 20.1758V13.8658L20.6019 4.65078C20.7689 4.34078 20.7609 3.96578 20.5809 3.66378C20.3999 3.36078 20.0739 3.17578 19.7219 3.17578H5.72191C5.37291 3.17578 5.04891 3.35778 4.86791 3.65578C4.68591 3.95378 4.67291 4.32478 4.83391 4.63478L9.59891 13.8568V17.1308C9.59891 17.4438 9.74591 17.7388 9.99591 17.9278L14.0219 20.9728Z" fill="#323232"/>
</svg>
