<svg width="53" height="53" viewBox="0 0 53 53" fill="none" xmlns="http://www.w3.org/2000/svg">
<g filter="url(#filter0_d_221_16506)">
<rect x="2.54688" y="1.48438" width="48" height="48" rx="10" fill="white"/>
<path d="M29.3229 22.495H29.3318M29.3229 27.8283C32.2684 27.8283 34.6562 25.4405 34.6562 22.495C34.6562 19.5494 32.2684 17.1616 29.3229 17.1616C26.3774 17.1616 23.9896 19.5494 23.9896 22.495C23.9896 22.7382 24.0059 22.9777 24.0374 23.2123C24.0893 23.5982 24.1152 23.7912 24.0978 23.9133C24.0796 24.0405 24.0564 24.1089 23.9938 24.2211C23.9336 24.3287 23.8275 24.4348 23.6155 24.6469L19.0728 29.1895C18.9191 29.3432 18.8422 29.4201 18.7872 29.5098C18.7385 29.5894 18.7026 29.676 18.6808 29.7668C18.6563 29.8691 18.6562 29.9778 18.6562 30.1951V31.7394C18.6562 32.2373 18.6562 32.4862 18.7531 32.6763C18.8384 32.8436 18.9743 32.9795 19.1416 33.0647C19.3317 33.1616 19.5806 33.1616 20.0785 33.1616H21.6227C21.8401 33.1616 21.9488 33.1616 22.0511 33.1371C22.1418 33.1153 22.2285 33.0794 22.3081 33.0306C22.3978 32.9757 22.4746 32.8988 22.6284 32.7451L27.171 28.2024C27.3831 27.9903 27.4891 27.8843 27.5968 27.8241C27.709 27.7614 27.7774 27.7382 27.9046 27.7201C28.0267 27.7026 28.2196 27.7286 28.6056 27.7805C28.8402 27.812 29.0796 27.8283 29.3229 27.8283Z" stroke="#344054" stroke-width="2" stroke-linecap="round" stroke-linejoin="round"/>
<rect x="3.04688" y="1.98438" width="47" height="47" rx="9.5" stroke="#E4E7EC"/>
</g>
<defs>
<filter id="filter0_d_221_16506" x="0.546875" y="0.484375" width="52" height="52" filterUnits="userSpaceOnUse" color-interpolation-filters="sRGB">
<feFlood flood-opacity="0" result="BackgroundImageFix"/>
<feColorMatrix in="SourceAlpha" type="matrix" values="0 0 0 0 0 0 0 0 0 0 0 0 0 0 0 0 0 0 127 0" result="hardAlpha"/>
<feOffset dy="1"/>
<feGaussianBlur stdDeviation="1"/>
<feColorMatrix type="matrix" values="0 0 0 0 0.0627451 0 0 0 0 0.0941176 0 0 0 0 0.156863 0 0 0 0.05 0"/>
<feBlend mode="normal" in2="BackgroundImageFix" result="effect1_dropShadow_221_16506"/>
<feBlend mode="normal" in="SourceGraphic" in2="effect1_dropShadow_221_16506" result="shape"/>
</filter>
</defs>
</svg>
