<svg width="25" height="25" viewBox="0 0 25 25" fill="none" xmlns="http://www.w3.org/2000/svg">
<g clip-path="url(#clip0_654_1778)">
<path fill-rule="evenodd" clip-rule="evenodd" d="M7.32246 8.8418V13.8012H8.5623V15.041H4.84277V13.8012H6.08262V10.7016H4.84277V9.46172H6.08262V8.8418H7.32246ZM14.1416 15.041H10.4221V12.5613C10.4224 12.2326 10.5531 11.9174 10.7856 11.685C11.018 11.4525 11.3332 11.3218 11.6619 11.3215H12.9018V10.0816H10.4221V8.8418H12.9018C13.2305 8.84217 13.5456 8.97292 13.778 9.20536C14.0105 9.43779 14.1412 9.75293 14.1416 10.0816V11.3215C14.1412 11.6502 14.0105 11.9653 13.778 12.1978C13.5456 12.4302 13.2305 12.561 12.9018 12.5613H11.6619V13.8012H14.1416V15.041ZM18.4811 8.8418H16.0014V10.0816H18.4811V11.3215H16.6213V12.5613H18.4811V13.8012H16.0014V15.041H18.4811C18.8097 15.0406 19.1248 14.9098 19.3573 14.6774C19.5897 14.445 19.7205 14.1299 19.7209 13.8012V10.0816C19.7205 9.75293 19.5898 9.43779 19.3573 9.20536C19.1249 8.97292 18.8098 8.84217 18.4811 8.8418Z" fill="#323232"/>
<path d="M17.7217 18.9975L5.72168 18.9975L9.2771 22.5527" stroke="#323232" stroke-width="1.7" stroke-linecap="round" stroke-linejoin="round"/>
<path d="M7.72168 5.35284H19.7217L16.1559 1.78711" stroke="#323232" stroke-width="1.7" stroke-linecap="round" stroke-linejoin="round"/>
</g>
<defs>
<clipPath id="clip0_654_1778">
<rect width="24" height="24" fill="white" transform="translate(0.72168 0.175781)"/>
</clipPath>
</defs>
</svg>
