<svg width="20" height="24" viewBox="0 0 20 24" fill="none" xmlns="http://www.w3.org/2000/svg">
<g clip-path="url(#clip0_579_2975)">
<path d="M1.55964 0.324707H13.0646L19.1627 6.85124V22.1477C19.1627 22.9515 18.5561 23.6025 17.8086 23.6025H1.55964C0.812162 23.6025 0.205566 22.9515 0.205566 22.1477V1.77956C0.205566 0.975773 0.812232 0.324707 1.55964 0.324707Z" fill="#F13939"/>
<path d="M19.1431 6.87169H14.4234C13.6759 6.87169 13.0693 6.21995 13.0693 5.41684V0.339355L19.1431 6.87169Z" fill="#DB1622"/>
</g>
<path d="M7.49848 12.4408C7.49848 12.7107 7.43651 12.9586 7.31259 13.1843C7.18867 13.4056 6.99836 13.5848 6.74167 13.722C6.48497 13.8592 6.16631 13.9278 5.78569 13.9278H5.08199V15.6008H3.94678V10.9404H5.78569C6.15746 10.9404 6.47169 11.0046 6.72839 11.133C6.98508 11.2613 7.17761 11.4383 7.30595 11.664C7.4343 11.8898 7.49848 12.1487 7.49848 12.4408ZM5.69939 13.025C5.91625 13.025 6.0778 12.9741 6.18402 12.8723C6.29023 12.7705 6.34334 12.6267 6.34334 12.4408C6.34334 12.2549 6.29023 12.1111 6.18402 12.0093C6.0778 11.9075 5.91625 11.8566 5.69939 11.8566H5.08199V13.025H5.69939Z" fill="white"/>
<path d="M9.83545 10.9404C10.3267 10.9404 10.756 11.0378 11.1234 11.2325C11.4907 11.4273 11.7739 11.7017 11.9731 12.0557C12.1767 12.4054 12.2785 12.8103 12.2785 13.2706C12.2785 13.7265 12.1767 14.1314 11.9731 14.4855C11.7739 14.8396 11.4885 15.114 11.1167 15.3087C10.7494 15.5034 10.3223 15.6008 9.83545 15.6008H8.08947V10.9404H9.83545ZM9.76242 14.6183C10.1917 14.6183 10.5259 14.501 10.7649 14.2664C11.0039 14.0318 11.1234 13.6999 11.1234 13.2706C11.1234 12.8413 11.0039 12.5072 10.7649 12.2682C10.5259 12.0292 10.1917 11.9097 9.76242 11.9097H9.22469V14.6183H9.76242Z" fill="white"/>
<path d="M15.9468 10.9404V11.8499H14.0481V12.8325H15.4688V13.7154H14.0481V15.6008H12.9129V10.9404H15.9468Z" fill="white"/>
<defs>
<clipPath id="clip0_579_2975">
<rect width="19" height="23.3241" fill="white" transform="translate(0.199219 0.301758)"/>
</clipPath>
</defs>
</svg>
