<svg width="64" height="64" viewBox="0 0 64 64" fill="none" xmlns="http://www.w3.org/2000/svg">
<g id="PlusCircle">
<path id="Vector" d="M32 6C26.8577 6 21.8308 7.52487 17.5552 10.3818C13.2795 13.2387 9.94701 17.2994 7.97913 22.0502C6.01125 26.8011 5.49636 32.0288 6.49958 37.0723C7.50279 42.1159 9.97905 46.7486 13.6152 50.3848C17.2514 54.0209 21.8841 56.4972 26.9276 57.5004C31.9712 58.5036 37.1989 57.9887 41.9498 56.0209C46.7006 54.053 50.7613 50.7205 53.6182 46.4448C56.4751 42.1691 58 37.1423 58 32C57.9914 25.107 55.2494 18.4988 50.3753 13.6247C45.5012 8.75064 38.893 6.0086 32 6ZM42 34H34V42C34 42.5304 33.7893 43.0391 33.4142 43.4142C33.0391 43.7893 32.5304 44 32 44C31.4696 44 30.9609 43.7893 30.5858 43.4142C30.2107 43.0391 30 42.5304 30 42V34H22C21.4696 34 20.9609 33.7893 20.5858 33.4142C20.2107 33.0391 20 32.5304 20 32C20 31.4696 20.2107 30.9609 20.5858 30.5858C20.9609 30.2107 21.4696 30 22 30H30V22C30 21.4696 30.2107 20.9609 30.5858 20.5858C30.9609 20.2107 31.4696 20 32 20C32.5304 20 33.0391 20.2107 33.4142 20.5858C33.7893 20.9609 34 21.4696 34 22V30H42C42.5304 30 43.0391 30.2107 43.4142 30.5858C43.7893 30.9609 44 31.4696 44 32C44 32.5304 43.7893 33.0391 43.4142 33.4142C43.0391 33.7893 42.5304 34 42 34Z" fill="#343330"/>
</g>
</svg>
