<svg width="17" height="17" viewBox="0 0 17 17" fill="none" xmlns="http://www.w3.org/2000/svg">
<g id="icons/arrow">
<path id="icon" d="M11.7654 12.6329C11.5051 12.8932 11.083 12.8932 10.8226 12.6329C10.5623 12.3725 10.5623 11.9504 10.8226 11.6901L13.0179 9.49479H4.29329C3.55691 9.49479 2.95996 8.89784 2.95996 8.16146V4.16146C2.95996 3.79327 3.25844 3.49479 3.62663 3.49479C3.99482 3.49479 4.29329 3.79327 4.29329 4.16146V7.49479C4.29329 7.86298 4.59177 8.16146 4.95996 8.16146L12.9509 8.16146L10.8226 6.03319C10.5623 5.77284 10.5623 5.35073 10.8226 5.09038C11.083 4.83003 11.5051 4.83003 11.7654 5.09038L14.5939 7.91881C14.7891 8.11407 14.9111 8.35483 14.96 8.60697C15.0413 9.02719 14.9193 9.479 14.5938 9.80443L11.7654 12.6329Z" fill="#939393"/>
</g>
</svg>
