<svg width="25" height="25" viewBox="0 0 25 25" fill="none" xmlns="http://www.w3.org/2000/svg">
<g clip-path="url(#clip0_654_1812)">
<path d="M11.2217 9.92578C15.3638 9.92578 18.7217 8.24685 18.7217 6.17578C18.7217 4.10471 15.3638 2.42578 11.2217 2.42578C7.07954 2.42578 3.72168 4.10471 3.72168 6.17578C3.72168 8.24685 7.07954 9.92578 11.2217 9.92578Z" stroke="#323232" stroke-width="1.7" stroke-miterlimit="10" stroke-linecap="round" stroke-linejoin="round"/>
<path d="M23.8217 16.0762C22.9967 16.2262 22.3217 16.0762 22.0217 15.5512C21.7217 15.0262 21.9467 14.2762 22.4717 13.6762C21.7967 13.0012 21.0467 12.5512 20.1467 12.3262C19.9217 13.0762 19.3967 13.6762 18.7967 13.6762C18.1967 13.6762 17.6717 13.1512 17.4467 12.3262C16.5467 12.5512 15.7217 13.0012 15.1217 13.6762C15.6467 14.2762 15.8717 15.0262 15.5717 15.5512C15.2717 16.0762 14.5217 16.2262 13.7717 16.0762C13.5467 16.5262 13.4717 16.9762 13.4717 17.4262C13.4717 17.8762 13.5467 18.3262 13.6217 18.7762C14.4467 18.6262 15.1217 18.7762 15.4217 19.3012C15.7217 19.8262 15.4967 20.5762 14.9717 21.1762C15.6467 21.8512 16.3967 22.3012 17.2967 22.5262C17.5217 21.7762 18.0467 21.1762 18.6467 21.1762C19.2467 21.1762 19.7717 21.7012 19.9967 22.5262C20.8967 22.3012 21.7217 21.8512 22.3217 21.1762C21.7967 20.5762 21.5717 19.8262 21.8717 19.3012C22.1717 18.7762 22.9217 18.6262 23.6717 18.7762C23.8217 18.3262 23.8217 17.8762 23.8217 17.4262C23.8217 16.9762 23.8967 16.5262 23.8217 16.0762Z" stroke="#323232" stroke-width="1.7" stroke-miterlimit="10" stroke-linecap="round" stroke-linejoin="round"/>
<path d="M18.1963 13.5258C18.4963 13.0758 18.7213 12.6258 18.7213 12.1758V6.17578" stroke="#323232" stroke-width="1.7" stroke-miterlimit="10" stroke-linecap="round" stroke-linejoin="round"/>
<path d="M3.72168 6.17578V12.1758C3.72168 14.2758 7.09668 15.9258 11.2217 15.9258C12.7967 15.9258 14.2217 15.7008 15.4217 15.2508" stroke="#323232" stroke-width="1.7" stroke-miterlimit="10" stroke-linecap="round" stroke-linejoin="round"/>
<path d="M3.72168 12.1758V18.1758C3.72168 20.2758 7.09668 21.9258 11.2217 21.9258C12.7217 21.9258 14.0717 21.7008 15.1967 21.3258" stroke="#323232" stroke-width="1.7" stroke-miterlimit="10" stroke-linecap="round" stroke-linejoin="round"/>
</g>
<defs>
<clipPath id="clip0_654_1812">
<rect width="24" height="24" fill="white" transform="translate(0.72168 0.175781)"/>
</clipPath>
</defs>
</svg>
