<svg width="17" height="17" viewBox="0 0 17 17" fill="none" xmlns="http://www.w3.org/2000/svg">
<g clip-path="url(#clip0_579_5095)">
<path d="M8.79623 3.86003C9.82979 3.86003 10.6677 3.02217 10.6677 1.98861C10.6677 0.955052 9.82979 0.117188 8.79623 0.117188C7.76267 0.117188 6.9248 0.955052 6.9248 1.98861C6.9248 3.02217 7.76267 3.86003 8.79623 3.86003Z" fill="#323232"/>
<path d="M8.79558 16.1166C9.41565 16.1166 9.91832 15.6139 9.91832 14.9938C9.91832 14.3738 9.41565 13.8711 8.79558 13.8711C8.17552 13.8711 7.67285 14.3738 7.67285 14.9938C7.67285 15.6139 8.17552 16.1166 8.79558 16.1166Z" fill="#323232"/>
<path d="M4.1971 5.57779C5.12737 5.57779 5.8815 4.82366 5.8815 3.89339C5.8815 2.96312 5.12737 2.20898 4.1971 2.20898C3.26683 2.20898 2.5127 2.96312 2.5127 3.89339C2.5127 4.82366 3.26683 5.57779 4.1971 5.57779Z" fill="#323232"/>
<path d="M13.3947 14.0238C13.9115 14.0238 14.3304 13.6048 14.3304 13.0881C14.3304 12.5713 13.9115 12.1523 13.3947 12.1523C12.8779 12.1523 12.459 12.5713 12.459 13.0881C12.459 13.6048 12.8779 14.0238 13.3947 14.0238Z" fill="#323232"/>
<path d="M2.29267 9.98769C3.11932 9.98769 3.78945 9.31756 3.78945 8.49091C3.78945 7.66427 3.11932 6.99414 2.29267 6.99414C1.46603 6.99414 0.795898 7.66427 0.795898 8.49091C0.795898 9.31756 1.46603 9.98769 2.29267 9.98769Z" fill="#323232"/>
<path d="M15.2989 9.23835C15.712 9.23835 16.0469 8.90343 16.0469 8.49027C16.0469 8.07712 15.712 7.74219 15.2989 7.74219C14.8857 7.74219 14.5508 8.07712 14.5508 8.49027C14.5508 8.90343 14.8857 9.23835 15.2989 9.23835Z" fill="#323232"/>
<path d="M3.2716 12.1635C2.75973 12.6754 2.75973 13.5036 3.2716 14.0155C3.78288 14.5274 4.61233 14.5274 5.1236 14.0155C5.63548 13.5036 5.63548 12.6754 5.1236 12.1635C4.61233 11.651 3.78348 11.6462 3.2716 12.1635Z" fill="#323232"/>
<path d="M13.3941 4.45416C13.7039 4.45416 13.9551 4.20296 13.9551 3.89309C13.9551 3.58323 13.7039 3.33203 13.3941 3.33203C13.0842 3.33203 12.833 3.58323 12.833 3.89309C12.833 4.20296 13.0842 4.45416 13.3941 4.45416Z" fill="#323232"/>
</g>
<defs>
<clipPath id="clip0_579_5095">
<rect width="16" height="16" fill="white" transform="translate(0.420898 0.117188)"/>
</clipPath>
</defs>
</svg>
