<svg width="166" height="37" viewBox="0 0 166 37" fill="none" xmlns="http://www.w3.org/2000/svg">
<g clip-path="url(#clip0_579_616)">
<path d="M8.64163 28.1745V7.01201H1.06836V2.54875H21.2942V7.01201H13.9338V28.1745H8.64163Z" fill="#1640DB"/>
<path d="M20.3525 28.2049V14.9062C20.3525 13.1657 20.7525 11.8753 21.5539 11.035C22.3546 10.1955 23.6677 9.77497 25.4926 9.77497H33.735V14.2382H27.2567C26.6484 14.2382 26.2226 14.3749 25.9793 14.6481C25.736 14.9214 25.6143 15.3518 25.6143 15.9385V28.2049H20.3525Z" fill="#1640DB"/>
<path d="M35.7109 20.7054C35.7109 19.4302 36.0805 18.4434 36.8211 17.7451C37.5609 17.0467 38.6612 16.6976 40.1211 16.6976H48.546V15.3313C48.546 14.7847 48.4289 14.3847 48.1962 14.132C47.9628 13.8792 47.5826 13.7524 47.0556 13.7524H36.5321V9.77497H48.3939C49.428 9.77497 50.2895 9.89187 50.9791 10.1241C51.668 10.3572 52.2208 10.7116 52.6367 11.1868C53.0519 11.6627 53.3462 12.2548 53.5188 12.963C53.6906 13.672 53.7773 14.4917 53.7773 15.4224V28.1745H40.1211C38.6612 28.1745 37.5609 27.8253 36.8211 27.127C36.0805 26.4287 35.7109 25.4419 35.7109 24.1667V20.7054ZM40.9734 22.2235C40.9734 22.6288 40.9833 22.9575 41.0039 23.2103C41.0236 23.4638 41.0845 23.6612 41.1863 23.8023C41.2875 23.9443 41.4396 24.0452 41.6426 24.1052C41.8448 24.1659 42.1391 24.1963 42.5246 24.1963H48.5467V20.6743H42.5246C41.8752 20.6743 41.4548 20.8063 41.2624 21.069C41.0693 21.3331 40.9734 21.718 40.9734 22.2235Z" fill="#1640DB"/>
<path d="M69.5325 28.1745V16.9101C69.5325 15.9795 69.3188 15.3009 68.8938 14.8758C68.4672 14.4508 67.7684 14.2382 66.7952 14.2382H61.8672V28.1745H56.6055V9.77497H68.7402C70.8282 9.77497 72.355 10.3018 73.3184 11.3538C74.281 12.4066 74.7616 13.9452 74.7616 15.9689V28.1745H69.5325Z" fill="#1640DB"/>
<path d="M77.8656 23.7112H88.6324C89.6665 23.7112 90.417 23.4737 90.8838 22.9977C91.3492 22.5226 91.5834 21.8591 91.5834 21.0098V20.1596C91.5834 19.3095 91.3142 18.6521 90.7766 18.1861C90.239 17.7208 89.5038 17.4779 88.5723 17.4574H83.3706C81.1808 17.4574 79.5886 16.9314 78.5963 15.8785C77.6017 14.8265 77.106 13.2879 77.106 11.2635V8.7434C77.106 6.719 77.6017 5.18115 78.5963 4.12834C79.5893 3.07628 81.1808 2.5495 83.3706 2.5495H95.811V7.04312H85.3484C84.3143 7.04312 83.5638 7.28146 83.0977 7.75663C82.6308 8.2318 82.3981 8.89522 82.3981 9.74536V10.2615C82.3981 11.1724 82.6308 11.851 83.0977 12.2958C83.5638 12.7406 84.3143 12.9638 85.3484 12.9638H90.6101C92.7794 12.9638 94.3656 13.5209 95.37 14.6337C96.3737 15.7472 96.8755 17.3056 96.8755 19.3095V21.9814C96.8755 24.0058 96.3783 25.5436 95.3852 26.5964C94.3907 27.6492 92.8 28.1753 90.6101 28.1753H77.8663L77.8656 23.7112Z" fill="#1640DB"/>
<path d="M99.6123 1.12172H105.238V6.67801H99.6123V1.12172ZM105.087 9.77497V28.1745H99.7644V9.77497H105.087Z" fill="#1640DB"/>
<path d="M108.219 16.6065C108.219 15.5134 108.321 14.5418 108.523 13.6917C108.725 12.8416 109.065 12.128 109.542 11.5512C110.018 10.9743 110.637 10.534 111.397 10.2304C112.157 9.92678 113.105 9.77497 114.24 9.77497H126.376V30.8464C126.376 32.6879 125.945 34.064 125.084 34.9749C124.221 35.8858 122.818 36.3412 120.871 36.3412H109.739V32.0305H119.107C119.837 32.0305 120.359 31.8537 120.674 31.4992C120.988 31.1447 121.145 30.624 121.145 29.9355V28.1745H114.241C112.153 28.1745 110.627 27.6485 109.663 26.5957C108.7 25.5429 108.219 24.005 108.219 21.9806V16.6065ZM121.145 23.7416V14.2382H116.187C115.214 14.2382 114.519 14.4508 114.104 14.8758C113.688 15.3009 113.481 15.9795 113.481 16.9101V21.0394C113.481 22.0102 113.688 22.704 114.104 23.1184C114.519 23.5336 115.214 23.7409 116.187 23.7409H121.145V23.7416Z" fill="#1640DB"/>
<path d="M134.71 1.63788V9.77497H141.584C143.672 9.77497 145.198 10.3018 146.162 11.3538C147.125 12.4066 147.606 13.9452 147.606 15.9689V28.1745H142.375V16.9101C142.375 15.9795 142.162 15.3009 141.736 14.8758C141.309 14.4508 140.61 14.2382 139.637 14.2382H134.71V28.1745H129.448V1.63788H134.71Z" fill="#1640DB"/>
<path d="M149.583 10.0786H153.719V3.5507H158.951V10.0786H165.276V14.5115H158.951V22.0406C158.951 22.6281 159.072 23.0577 159.315 23.331C159.558 23.6042 159.984 23.7409 160.593 23.7409H165.276V28.1738H159.285C158.19 28.1738 157.282 28.0523 156.562 27.8102C155.843 27.5673 155.275 27.1968 154.86 26.7019C154.444 26.2055 154.15 25.5876 153.978 24.8498C153.806 24.112 153.719 23.2361 153.719 22.2235V14.5115H149.583V10.0786Z" fill="#1640DB"/>
<path d="M8.64163 28.1745V7.01201H1.06836V2.54875H21.2942V7.01201H13.9338V28.1745H8.64163Z" fill="#C4C5C9"/>
<path d="M20.3525 28.2049V14.9062C20.3525 13.1657 20.7525 11.8753 21.5539 11.035C22.3546 10.1955 23.6677 9.77497 25.4926 9.77497H33.735V14.2382H27.2567C26.6484 14.2382 26.2226 14.3749 25.9793 14.6481C25.736 14.9214 25.6143 15.3518 25.6143 15.9385V28.2049H20.3525Z" fill="#C4C5C9"/>
<path d="M35.7109 20.7054C35.7109 19.4302 36.0805 18.4434 36.8211 17.7451C37.5609 17.0467 38.6612 16.6976 40.1211 16.6976H48.546V15.3313C48.546 14.7847 48.4289 14.3847 48.1962 14.132C47.9628 13.8792 47.5826 13.7524 47.0556 13.7524H36.5321V9.77497H48.3939C49.428 9.77497 50.2895 9.89187 50.9791 10.1241C51.668 10.3572 52.2208 10.7116 52.6367 11.1868C53.0519 11.6627 53.3462 12.2548 53.5188 12.963C53.6906 13.672 53.7773 14.4917 53.7773 15.4224V28.1745H40.1211C38.6612 28.1745 37.5609 27.8253 36.8211 27.127C36.0805 26.4287 35.7109 25.4419 35.7109 24.1667V20.7054ZM40.9734 22.2235C40.9734 22.6288 40.9833 22.9575 41.0039 23.2103C41.0236 23.4638 41.0845 23.6612 41.1863 23.8023C41.2875 23.9443 41.4396 24.0452 41.6426 24.1052C41.8448 24.1659 42.1391 24.1963 42.5246 24.1963H48.5467V20.6743H42.5246C41.8752 20.6743 41.4548 20.8063 41.2624 21.069C41.0693 21.3331 40.9734 21.718 40.9734 22.2235Z" fill="#C4C5C9"/>
<path d="M69.5325 28.1745V16.9101C69.5325 15.9795 69.3188 15.3009 68.8938 14.8758C68.4672 14.4508 67.7684 14.2382 66.7952 14.2382H61.8672V28.1745H56.6055V9.77497H68.7402C70.8282 9.77497 72.355 10.3018 73.3184 11.3538C74.281 12.4066 74.7616 13.9452 74.7616 15.9689V28.1745H69.5325Z" fill="#C4C5C9"/>
<path d="M77.8656 23.7112H88.6324C89.6665 23.7112 90.417 23.4737 90.8838 22.9977C91.3492 22.5226 91.5834 21.8591 91.5834 21.0098V20.1596C91.5834 19.3095 91.3142 18.6521 90.7766 18.1861C90.239 17.7208 89.5038 17.4779 88.5723 17.4574H83.3706C81.1808 17.4574 79.5886 16.9314 78.5963 15.8785C77.6017 14.8265 77.106 13.2879 77.106 11.2635V8.7434C77.106 6.719 77.6017 5.18115 78.5963 4.12834C79.5893 3.07628 81.1808 2.5495 83.3706 2.5495H95.811V7.04312H85.3484C84.3143 7.04312 83.5638 7.28146 83.0977 7.75663C82.6308 8.2318 82.3981 8.89522 82.3981 9.74536V10.2615C82.3981 11.1724 82.6308 11.851 83.0977 12.2958C83.5638 12.7406 84.3143 12.9638 85.3484 12.9638H90.6101C92.7794 12.9638 94.3656 13.5209 95.37 14.6337C96.3737 15.7472 96.8755 17.3056 96.8755 19.3095V21.9814C96.8755 24.0058 96.3783 25.5436 95.3852 26.5964C94.3907 27.6492 92.8 28.1753 90.6101 28.1753H77.8663L77.8656 23.7112Z" fill="#C4C5C9"/>
<path d="M99.6123 1.12172H105.238V6.67801H99.6123V1.12172ZM105.087 9.77497V28.1745H99.7644V9.77497H105.087Z" fill="#C4C5C9"/>
<path d="M108.219 16.6065C108.219 15.5134 108.321 14.5418 108.523 13.6917C108.725 12.8416 109.065 12.128 109.542 11.5512C110.018 10.9743 110.637 10.534 111.397 10.2304C112.157 9.92678 113.105 9.77497 114.24 9.77497H126.376V30.8464C126.376 32.6879 125.945 34.064 125.084 34.9749C124.221 35.8858 122.818 36.3412 120.871 36.3412H109.739V32.0305H119.107C119.837 32.0305 120.359 31.8537 120.674 31.4992C120.988 31.1447 121.145 30.624 121.145 29.9355V28.1745H114.241C112.153 28.1745 110.627 27.6485 109.663 26.5957C108.7 25.5429 108.219 24.005 108.219 21.9806V16.6065ZM121.145 23.7416V14.2382H116.187C115.214 14.2382 114.519 14.4508 114.104 14.8758C113.688 15.3009 113.481 15.9795 113.481 16.9101V21.0394C113.481 22.0102 113.688 22.704 114.104 23.1184C114.519 23.5336 115.214 23.7409 116.187 23.7409H121.145V23.7416Z" fill="#C4C5C9"/>
<path d="M134.71 1.63788V9.77497H141.584C143.672 9.77497 145.198 10.3018 146.162 11.3538C147.125 12.4066 147.606 13.9452 147.606 15.9689V28.1745H142.375V16.9101C142.375 15.9795 142.162 15.3009 141.736 14.8758C141.309 14.4508 140.61 14.2382 139.637 14.2382H134.71V28.1745H129.448V1.63788H134.71Z" fill="#C4C5C9"/>
<path d="M149.583 10.0786H153.719V3.5507H158.951V10.0786H165.276V14.5115H158.951V22.0406C158.951 22.6281 159.072 23.0577 159.315 23.331C159.558 23.6042 159.984 23.7409 160.593 23.7409H165.276V28.1738H159.285C158.19 28.1738 157.282 28.0523 156.562 27.8102C155.843 27.5673 155.275 27.1968 154.86 26.7019C154.444 26.2055 154.15 25.5876 153.978 24.8498C153.806 24.112 153.719 23.2361 153.719 22.2235V14.5115H149.583V10.0786Z" fill="#C4C5C9"/>
<path d="M8.64163 28.1745V7.01201H1.06836V2.54875H21.2942V7.01201H13.9338V28.1745H8.64163Z" fill="#1640DB"/>
<path d="M20.3525 28.2049V14.9062C20.3525 13.1657 20.7525 11.8753 21.5539 11.035C22.3546 10.1955 23.6677 9.77497 25.4926 9.77497H33.735V14.2382H27.2567C26.6484 14.2382 26.2226 14.3749 25.9793 14.6481C25.736 14.9214 25.6143 15.3518 25.6143 15.9385V28.2049H20.3525Z" fill="#1640DB"/>
<path d="M35.7109 20.7054C35.7109 19.4302 36.0805 18.4434 36.8211 17.7451C37.5609 17.0467 38.6612 16.6976 40.1211 16.6976H48.546V15.3313C48.546 14.7847 48.4289 14.3847 48.1962 14.132C47.9628 13.8792 47.5826 13.7524 47.0556 13.7524H36.5321V9.77497H48.3939C49.428 9.77497 50.2895 9.89187 50.9791 10.1241C51.668 10.3572 52.2208 10.7116 52.6367 11.1868C53.0519 11.6627 53.3462 12.2548 53.5188 12.963C53.6906 13.672 53.7773 14.4917 53.7773 15.4224V28.1745H40.1211C38.6612 28.1745 37.5609 27.8253 36.8211 27.127C36.0805 26.4287 35.7109 25.4419 35.7109 24.1667V20.7054ZM40.9734 22.2235C40.9734 22.6288 40.9833 22.9575 41.0039 23.2103C41.0236 23.4638 41.0845 23.6612 41.1863 23.8023C41.2875 23.9443 41.4396 24.0452 41.6426 24.1052C41.8448 24.1659 42.1391 24.1963 42.5246 24.1963H48.5467V20.6743H42.5246C41.8752 20.6743 41.4548 20.8063 41.2624 21.069C41.0693 21.3331 40.9734 21.718 40.9734 22.2235Z" fill="#1640DB"/>
<path d="M69.5325 28.1745V16.9101C69.5325 15.9795 69.3188 15.3009 68.8938 14.8758C68.4672 14.4508 67.7684 14.2382 66.7952 14.2382H61.8672V28.1745H56.6055V9.77497H68.7402C70.8282 9.77497 72.355 10.3018 73.3184 11.3538C74.281 12.4066 74.7616 13.9452 74.7616 15.9689V28.1745H69.5325Z" fill="#1640DB"/>
<path d="M77.8656 23.7112H88.6324C89.6665 23.7112 90.417 23.4737 90.8838 22.9977C91.3492 22.5226 91.5834 21.8591 91.5834 21.0098V20.1596C91.5834 19.3095 91.3142 18.6521 90.7766 18.1861C90.239 17.7208 89.5038 17.4779 88.5723 17.4574H83.3706C81.1808 17.4574 79.5886 16.9314 78.5963 15.8785C77.6017 14.8265 77.106 13.2879 77.106 11.2635V8.7434C77.106 6.719 77.6017 5.18115 78.5963 4.12834C79.5893 3.07628 81.1808 2.5495 83.3706 2.5495H95.811V7.04312H85.3484C84.3143 7.04312 83.5638 7.28146 83.0977 7.75663C82.6308 8.2318 82.3981 8.89522 82.3981 9.74536V10.2615C82.3981 11.1724 82.6308 11.851 83.0977 12.2958C83.5638 12.7406 84.3143 12.9638 85.3484 12.9638H90.6101C92.7794 12.9638 94.3656 13.5209 95.37 14.6337C96.3737 15.7472 96.8755 17.3056 96.8755 19.3095V21.9814C96.8755 24.0058 96.3783 25.5436 95.3852 26.5964C94.3907 27.6492 92.8 28.1753 90.6101 28.1753H77.8663L77.8656 23.7112Z" fill="#1640DB"/>
<path d="M99.6123 1.12172H105.238V6.67801H99.6123V1.12172ZM105.087 9.77497V28.1745H99.7644V9.77497H105.087Z" fill="#1640DB"/>
<path d="M108.219 16.6065C108.219 15.5134 108.321 14.5418 108.523 13.6917C108.725 12.8416 109.065 12.128 109.542 11.5512C110.018 10.9743 110.637 10.534 111.397 10.2304C112.157 9.92678 113.105 9.77497 114.24 9.77497H126.376V30.8464C126.376 32.6879 125.945 34.064 125.084 34.9749C124.221 35.8858 122.818 36.3412 120.871 36.3412H109.739V32.0305H119.107C119.837 32.0305 120.359 31.8537 120.674 31.4992C120.988 31.1447 121.145 30.624 121.145 29.9355V28.1745H114.241C112.153 28.1745 110.627 27.6485 109.663 26.5957C108.7 25.5429 108.219 24.005 108.219 21.9806V16.6065ZM121.145 23.7416V14.2382H116.187C115.214 14.2382 114.519 14.4508 114.104 14.8758C113.688 15.3009 113.481 15.9795 113.481 16.9101V21.0394C113.481 22.0102 113.688 22.704 114.104 23.1184C114.519 23.5336 115.214 23.7409 116.187 23.7409H121.145V23.7416Z" fill="#1640DB"/>
<path d="M134.71 1.63788V9.77497H141.584C143.672 9.77497 145.198 10.3018 146.162 11.3538C147.125 12.4066 147.606 13.9452 147.606 15.9689V28.1745H142.375V16.9101C142.375 15.9795 142.162 15.3009 141.736 14.8758C141.309 14.4508 140.61 14.2382 139.637 14.2382H134.71V28.1745H129.448V1.63788H134.71Z" fill="#1640DB"/>
<path d="M149.583 10.0786H153.719V3.5507H158.951V10.0786H165.276V14.5115H158.951V22.0406C158.951 22.6281 159.072 23.0577 159.315 23.331C159.558 23.6042 159.984 23.7409 160.593 23.7409H165.276V28.1738H159.285C158.19 28.1738 157.282 28.0523 156.562 27.8102C155.843 27.5673 155.275 27.1968 154.86 26.7019C154.444 26.2055 154.15 25.5876 153.978 24.8498C153.806 24.112 153.719 23.2361 153.719 22.2235V14.5115H149.583V10.0786Z" fill="#1640DB"/>
</g>
<defs>
<clipPath id="clip0_579_616">
<rect width="165" height="35.6757" fill="white" transform="translate(0.402344 0.90918)"/>
</clipPath>
</defs>
</svg>
