<svg width="21" height="21" viewBox="0 0 21 21" fill="none" xmlns="http://www.w3.org/2000/svg">
<path d="M11.5547 7.67578H6.55469" stroke="#34353A" stroke-width="1.5" stroke-linecap="round" stroke-linejoin="round"/>
<path d="M19.0545 9.31676V11.0335C19.0545 11.4918 18.6879 11.8668 18.2212 11.8834H16.5879C15.6879 11.8834 14.8629 11.2251 14.7879 10.3251C14.7379 9.80011 14.9379 9.30844 15.2879 8.96678C15.5962 8.65011 16.0212 8.4668 16.4879 8.4668H18.2212C18.6879 8.48346 19.0545 8.85843 19.0545 9.31676Z" stroke="#34353A" stroke-width="1.5" stroke-linecap="round" stroke-linejoin="round"/>
<path d="M15.2887 8.96679C14.9387 9.30845 14.7387 9.80012 14.7887 10.3251C14.8637 11.2251 15.6887 11.8835 16.5887 11.8835H18.222V13.0918C18.222 15.5918 16.5553 17.2585 14.0553 17.2585H6.55534C4.05534 17.2585 2.38867 15.5918 2.38867 13.0918V7.25846C2.38867 4.9918 3.75534 3.40846 5.88034 3.14179C6.09701 3.10846 6.32201 3.0918 6.55534 3.0918H14.0553C14.272 3.0918 14.4803 3.10012 14.6803 3.13345C16.8303 3.38345 18.222 4.97513 18.222 7.25846V8.46681H16.4887C16.022 8.46681 15.597 8.65012 15.2887 8.96679Z" stroke="#34353A" stroke-width="1.7" stroke-linecap="round" stroke-linejoin="round"/>
</svg>
