<svg width="42" height="42" viewBox="0 0 42 42" fill="none" xmlns="http://www.w3.org/2000/svg">
<g id="XCircle">
<path id="Vector" d="M21 3.9375C17.6254 3.9375 14.3265 4.9382 11.5206 6.81305C8.71468 8.6879 6.52773 11.3527 5.23631 14.4705C3.94489 17.5882 3.607 21.0189 4.26536 24.3287C4.92372 27.6385 6.54876 30.6788 8.935 33.065C11.3212 35.4512 14.3615 37.0763 17.6713 37.7346C20.9811 38.393 24.4118 38.0551 27.5295 36.7637C30.6473 35.4723 33.3121 33.2853 35.187 30.4794C37.0618 27.6735 38.0625 24.3746 38.0625 21C38.0577 16.4762 36.2585 12.1391 33.0597 8.94027C29.8609 5.74146 25.5238 3.94228 21 3.9375ZM27.1786 25.3214C27.3005 25.4433 27.3973 25.5881 27.4633 25.7474C27.5293 25.9068 27.5632 26.0775 27.5632 26.25C27.5632 26.4225 27.5293 26.5932 27.4633 26.7526C27.3973 26.9119 27.3005 27.0567 27.1786 27.1786C27.0567 27.3005 26.9119 27.3973 26.7526 27.4633C26.5932 27.5293 26.4225 27.5632 26.25 27.5632C26.0776 27.5632 25.9068 27.5293 25.7475 27.4633C25.5881 27.3973 25.4434 27.3005 25.3214 27.1786L21 22.8555L16.6786 27.1786C16.5567 27.3005 16.4119 27.3973 16.2526 27.4633C16.0932 27.5293 15.9225 27.5632 15.75 27.5632C15.5776 27.5632 15.4068 27.5293 15.2475 27.4633C15.0881 27.3973 14.9434 27.3005 14.8214 27.1786C14.6995 27.0567 14.6027 26.9119 14.5367 26.7526C14.4707 26.5932 14.4368 26.4225 14.4368 26.25C14.4368 26.0775 14.4707 25.9068 14.5367 25.7474C14.6027 25.5881 14.6995 25.4433 14.8214 25.3214L19.1445 21L14.8214 16.6786C14.5751 16.4323 14.4368 16.0983 14.4368 15.75C14.4368 15.4017 14.5751 15.0677 14.8214 14.8214C15.0677 14.5751 15.4017 14.4368 15.75 14.4368C16.0983 14.4368 16.4323 14.5751 16.6786 14.8214L21 19.1445L25.3214 14.8214C25.4434 14.6995 25.5881 14.6027 25.7475 14.5367C25.9068 14.4707 26.0776 14.4368 26.25 14.4368C26.4225 14.4368 26.5932 14.4707 26.7526 14.5367C26.9119 14.6027 27.0567 14.6995 27.1786 14.8214C27.3005 14.9434 27.3973 15.0881 27.4633 15.2474C27.5293 15.4068 27.5632 15.5775 27.5632 15.75C27.5632 15.9225 27.5293 16.0932 27.4633 16.2526C27.3973 16.4119 27.3005 16.5566 27.1786 16.6786L22.8556 21L27.1786 25.3214Z" fill="#343330"/>
</g>
</svg>
